<svg width="100" height="71" viewBox="0 0 100 71" fill="none" xmlns="http://www.w3.org/2000/svg">
<path d="M16.4671 70.6471C7.38524 70.6471 0 63.2618 0 54.18C0 45.0981 7.38524 37.7129 16.4671 37.7129C25.549 37.7129 32.9342 45.0981 32.9342 54.18C32.9342 63.3117 25.549 70.6471 16.4671 70.6471Z" fill="white"/>
<path d="M16.4671 70.6471C7.38524 70.6471 0 63.2618 0 54.18C0 45.0981 7.38524 37.7129 16.4671 37.7129C25.549 37.7129 32.9342 45.0981 32.9342 54.18C32.9342 63.3117 25.549 70.6471 16.4671 70.6471Z" fill="white"/>
<path d="M55.3893 1.83286L37.525 31.0245C37.026 31.8728 37.5749 32.9207 38.523 32.9207H56.3873H74.2516C75.1998 32.9207 75.7487 31.8229 75.2497 31.0245L57.3854 1.83286C56.8864 1.08436 55.8384 1.08436 55.3893 1.83286Z" fill="white"/>
<path d="M32.5849 6.77396L26.1478 0.336827C25.6987 -0.112276 24.9003 -0.112276 24.4512 0.336827L17.3653 7.42267C16.9162 7.87177 16.1178 7.87177 15.6687 7.42267L8.58287 0.336827C8.13377 -0.112276 7.33537 -0.112276 6.88627 0.336827L0.449132 6.77396C2.90051e-05 7.22307 2.90051e-05 8.02147 0.449132 8.47058L7.53497 15.5564C7.98407 16.0055 7.98407 16.8039 7.53497 17.253L0.449132 24.3389C2.90051e-05 24.788 2.90051e-05 25.5864 0.449132 26.0355L6.88627 32.4726C7.33537 32.9217 8.13377 32.9217 8.58287 32.4726L15.6687 25.3868C16.1178 24.9377 16.9162 24.9377 17.3653 25.3868L24.4512 32.4726C24.9003 32.9217 25.6987 32.9217 26.1478 32.4726L32.5849 26.0355C33.034 25.5864 33.034 24.788 32.5849 24.3389L25.4991 17.253C25.05 16.8039 25.05 16.0055 25.4991 15.5564L32.5849 8.47058C33.0839 8.02147 33.0839 7.27297 32.5849 6.77396Z" fill="white"/>
<path d="M40.6685 49.0897V51.1855H44.3112V52.6326H40.6685V55.4769H38.8721V47.6426H44.7603V49.0897H40.6685Z" fill="white"/>
<path d="M47.2059 54.6785C46.6071 54.0797 46.2578 53.1815 46.2578 52.0338V47.6426H48.0542V51.934C48.0542 53.3312 48.653 54.0298 49.8007 54.0298C50.3496 54.0298 50.7987 53.8801 51.0981 53.5308C51.3975 53.1815 51.5472 52.6825 51.5472 51.934V47.6426H53.3437V52.0338C53.3437 53.1815 53.0443 54.0797 52.3956 54.6785C51.7968 55.2773 50.8985 55.6266 49.8007 55.6266C48.7029 55.6266 47.8047 55.2773 47.2059 54.6785Z" fill="white"/>
<path d="M56.9364 49.1396H54.4414V47.6426H61.2279V49.1396H58.7328V55.4769H56.9364V49.1396Z" fill="white"/>
<path d="M63.2733 54.6785C62.6745 54.0797 62.3252 53.1815 62.3252 52.0338V47.6426H64.1216V51.934C64.1216 53.3312 64.7204 54.0298 65.8681 54.0298C66.417 54.0298 66.8661 53.8801 67.1655 53.5308C67.4649 53.1815 67.6146 52.6825 67.6146 51.934V47.6426H69.411V52.0338C69.411 53.1815 69.1116 54.0797 68.4629 54.6785C67.8641 55.2773 66.9659 55.6266 65.8681 55.6266C64.7703 55.6266 63.922 55.2773 63.2733 54.6785Z" fill="white"/>
<path d="M76.4969 55.4759L74.9999 53.2802H74.9001H73.3032V55.4759H71.5068V47.6914H74.9001C75.5987 47.6914 76.1975 47.7912 76.6965 48.0407C77.1955 48.2902 77.5947 48.5896 77.8941 49.0387C78.1436 49.4379 78.2933 49.9868 78.2933 50.5357C78.2933 51.1345 78.1436 51.6335 77.8941 52.0327C77.5947 52.4319 77.1955 52.7812 76.6965 52.9808L78.443 55.4759H76.4969ZM76.0478 49.4878C75.7484 49.2383 75.3492 49.1385 74.8003 49.1385H73.3032V51.883H74.8003C75.3492 51.883 75.7484 51.7832 76.0478 51.5337C76.3472 51.2842 76.447 50.9848 76.447 50.5357C76.4969 50.0367 76.3472 49.7373 76.0478 49.4878Z" fill="white"/>
<path d="M86.1278 54.0298V55.4769H80.0898V47.6426H85.9781V49.0897H81.8862V50.7863H85.4791V52.2334H81.8862V54.0298H86.1278Z" fill="white"/>
<path d="M44.0119 68.2519H40.3691L39.6705 69.9485H37.8242L41.3172 62.1641H43.1137L46.6067 69.9485H44.7105L44.0119 68.2519ZM43.4629 66.9046L42.2154 63.9106L40.9679 66.9046H43.4629Z" fill="white"/>
<path d="M49.2022 69.5477C48.5534 69.1984 48.0544 68.6994 47.7051 68.1006C47.3558 67.5018 47.1562 66.8032 47.1562 66.0048C47.1562 65.2563 47.3558 64.5577 47.7051 63.909C48.0544 63.3102 48.6033 62.8112 49.2022 62.4619C49.8509 62.1126 50.5495 61.9629 51.3479 61.9629C52.0465 61.9629 52.6453 62.0627 53.1942 62.3122C53.7431 62.5617 54.1922 62.911 54.5914 63.3601L53.4437 64.408C52.8948 63.8092 52.2461 63.5098 51.4976 63.5098C50.9986 63.5098 50.5994 63.6096 50.2002 63.8092C49.801 64.0088 49.5016 64.3082 49.302 64.7074C49.1024 65.1066 49.0026 65.5058 49.0026 66.0048C49.0026 66.5038 49.1024 66.903 49.302 67.3022C49.5016 67.7014 49.801 68.0008 50.2002 68.2004C50.5994 68.4 50.9986 68.4998 51.4976 68.4998C52.296 68.4998 52.9447 68.2004 53.4437 67.5517L54.5914 68.5996C54.2421 69.0487 53.7431 69.398 53.1942 69.6475C52.6453 69.897 52.0465 69.9968 51.3479 69.9968C50.5994 70.0467 49.8509 69.897 49.2022 69.5477Z" fill="white"/>
<path d="M61.1281 68.2519H57.4853L56.7867 69.9485H54.9404L58.4335 62.1641H60.2299L63.7229 69.9485H61.8267L61.1281 68.2519ZM60.5792 66.9046L59.3317 63.9106L58.0842 66.9046H60.5792Z" fill="white"/>
<path d="M64.8701 62.1133H68.413C69.2613 62.1133 70.0098 62.263 70.6585 62.6123C71.3072 62.9117 71.8062 63.4107 72.1555 63.9596C72.5049 64.5584 72.7045 65.2071 72.7045 66.0055C72.7045 66.8039 72.5049 67.4526 72.1555 68.0514C71.8062 68.6502 71.3072 69.0993 70.6585 69.3987C70.0098 69.6981 69.2613 69.8977 68.413 69.8977H64.8701V62.1133ZM68.3132 68.4506C69.1116 68.4506 69.7104 68.251 70.1595 67.8019C70.6086 67.3528 70.8582 66.754 70.8582 66.0554C70.8582 65.3069 70.6086 64.7081 70.1595 64.3089C69.7104 63.8598 69.0617 63.6602 68.3132 63.6602H66.6665V68.5005H68.3132V68.4506Z" fill="white"/>
<path d="M80.4393 68.5005V69.9476H74.4014V62.1133H80.2896V63.5604H76.1978V65.257H79.8405V66.6542H76.1978V68.5005H80.4393Z" fill="white"/>
<path d="M89.3212 69.9476V65.257L87.0258 69.0993H86.2274L83.932 65.3568V69.9476H82.2354V62.1133H83.7324L86.6266 66.9536L89.5208 62.1133H91.0178V69.9476H89.3212Z" fill="white"/>
<path d="M96.9565 67.1532V69.9476H95.1601V67.1532L92.1162 62.1133H94.0623L96.1582 65.6063L98.2041 62.1133H100L96.9565 67.1532Z" fill="white"/>
</svg>
