<svg width="41" height="56" viewBox="0 0 41 56" fill="none" xmlns="http://www.w3.org/2000/svg">
<path d="M3.34283 55.9436H25.6853C26.1345 55.9436 26.4984 55.5796 26.4984 55.1304C26.4984 54.6813 26.1345 54.3173 25.6853 54.3173H9.06083V46.8673C9.06083 46.4181 8.69677 46.0542 8.24772 46.0542C7.79867 46.0542 7.43461 46.4181 7.43461 46.8673V54.3174H3.34261C2.06777 54.3174 1.4691 53.7706 1.65362 52.3978C3.87861 41.5255 3.88338 40.6483 4.24722 39.7574C4.31064 39.6686 4.66126 38.4139 6.38028 37.6843C6.55797 37.6114 6.44717 37.6602 7.05841 37.4739C7.09614 37.4631 6.90977 37.5264 9.82992 36.5125L11.7776 40.108C11.9915 40.5028 12.4848 40.6497 12.8798 40.4356C13.2747 40.2217 13.4214 39.7282 13.2075 39.3334L11.3865 35.9718L12.6318 35.5392C13.2321 36.6474 18.5471 46.4586 19.1248 47.525C19.4814 48.1854 20.3893 48.2184 20.8075 47.6416C20.8833 47.5372 20.4504 48.3143 27.3625 35.5355L28.6075 35.968L22.0251 48.1439C21.1574 49.749 18.8504 49.7491 17.9816 48.1456L15.0151 42.6694C14.801 42.2745 14.3078 42.1275 13.9128 42.3418C13.518 42.5558 13.3713 43.0492 13.5852 43.444L16.5518 48.9204C18.0357 51.659 21.9748 51.6565 23.4557 48.9173L30.1638 36.5086C33.0775 37.5202 32.9066 37.4625 32.9443 37.4733C33.5175 37.648 33.4538 37.6143 33.6226 37.6834C34.2443 37.9483 34.6154 38.2539 34.6046 38.2459C35.2422 38.7601 35.6818 39.3542 35.9167 40.229C35.9552 40.3677 38.3691 52.3358 38.3789 52.7397C38.4031 53.7605 37.9623 54.3174 36.6626 54.3174H32.5704V46.8673C32.5704 46.4181 32.2065 46.0542 31.7573 46.0542C31.3081 46.0542 30.9442 46.4181 30.9442 46.8673V54.3174H29.4796C29.0305 54.3174 28.6665 54.6814 28.6665 55.1306C28.6665 55.5797 29.0305 55.9437 29.4796 55.9437H36.6624C38.5887 55.9437 39.7987 54.9651 39.9822 53.2598C40.0265 52.8529 40.0005 52.3532 39.9509 52.1038C37.4779 39.6859 37.5848 40.2147 37.5727 40.1636C37.2484 38.594 36.3366 37.2907 34.8585 36.4743C34.1671 36.0914 33.7685 36.0318 33.4199 35.918L27.3443 33.8077L25.3194 32.4189V30.8436C28.2804 29.0846 30.1656 26.0552 30.5102 22.777C32.9846 22.8917 34.7091 20.5267 33.6717 18.4562V11.8278C33.6717 7.03441 31.0647 5.36678 30.2682 4.96933C26.3709 0.317049 19.0937 -0.87616 13.5769 1.95465L13.5663 1.95996C13.4717 2.01558 12.3346 2.54161 10.9347 3.71227C10.595 4.00607 10.5578 4.51952 10.8515 4.85918C11.1457 5.19928 11.6593 5.2356 11.9984 4.94234C17.4014 0.405624 25.4208 1.5714 29.1281 6.1427C29.2194 6.25513 29.3305 6.33807 29.4662 6.3888C29.5716 6.43108 32.0456 7.4723 32.0456 11.828V16.9597C31.5945 16.7686 31.0999 16.6707 30.5728 16.6855V14.026C30.5728 13.3513 30.0645 12.7937 29.3906 12.7287C28.0243 12.5967 27.2585 11.7064 26.8567 10.983C26.3539 10.0774 25.1536 9.86045 24.3665 10.5331C20.741 13.6321 16.5666 13.7895 13.7031 13.3766C11.5402 13.0643 9.52842 14.5376 9.17835 16.6866C8.65189 16.6638 8.13171 16.757 7.6535 16.9595C7.65664 14.1602 7.33368 11.1144 9.62317 7.62419C9.86884 7.24821 9.76314 6.7444 9.38715 6.49873C9.01128 6.25296 8.50737 6.35845 8.2617 6.73465C5.14587 11.509 6.2607 15.787 6.02717 18.4563C4.99029 20.5261 6.71257 22.8919 9.18854 22.777C9.59271 26.6379 11.9711 28.859 12.0276 28.9557L12.0277 28.9558C12.4499 29.3605 13.208 30.206 14.6858 31.0205V32.4188L12.6612 33.8075C4.73726 36.56 5.54147 36.226 4.89771 36.6193C3.68097 37.3688 2.83762 38.5151 2.48614 39.9264C2.41686 40.2053 2.53189 39.6782 0.0542908 52.1037C0.00442008 52.3547 -0.0218162 52.844 0.022959 53.2589C0.206396 54.965 1.41652 55.9436 3.34283 55.9436ZM21.408 32.2314C21.8653 32.1649 22.3575 32.0559 22.6455 31.9746C22.7139 31.9524 23.1065 31.8585 23.6931 31.6328V32.534L20.0025 36.6407L16.3118 32.5339V31.7453C18.009 32.3348 19.7691 32.4703 21.408 32.2314ZM23.4394 39.3725C23.2281 39.2174 21.4617 37.92 21.2072 37.733L24.6323 33.9215L25.91 34.8026C25.0895 36.3202 23.9719 38.3875 23.4394 39.3725ZM22.1435 41.7697L21.9425 41.1515L22.2508 40.5168L22.6587 40.8165L22.1435 41.7697ZM17.3419 40.82L17.7543 40.5171L18.0625 41.1518L17.8596 41.7757L17.3419 40.82ZM18.7979 37.733C18.6001 37.8781 16.7599 39.2297 16.5656 39.3725L14.0952 34.8026L15.3728 33.9215L18.7979 37.733ZM19.0867 39.5384L20.0025 38.8658L20.9182 39.5384L20.5589 40.2782H19.4461L19.0867 39.5384ZM20.0022 45.7307L18.9283 43.7482L19.5278 41.9044H20.4775L21.076 43.745C20.7354 44.3741 20.4194 44.9587 20.0022 45.7307ZM32.3493 19.732C32.3493 20.5782 31.501 21.2012 30.5724 21.152V18.312C31.51 18.2625 32.3493 18.8941 32.3493 19.732ZM29.2341 14.3471C29.2336 14.3471 29.2331 14.3471 29.2327 14.347C29.2331 14.3471 29.2335 14.3471 29.2341 14.3471ZM13.4705 14.9859C16.6666 15.4472 21.3347 15.2636 25.4226 11.769L25.4347 11.7721C26.22 13.1864 27.4592 14.0792 28.9462 14.3108V17.1901L28.0184 17.7377C27.6364 17.1872 27.0006 16.8253 26.2814 16.8253H22.5605C21.6829 16.8253 20.929 17.3632 20.6097 18.1263H19.0888C18.7696 17.3632 18.0155 16.8253 17.1379 16.8253H13.417C12.6977 16.8253 12.062 17.1872 11.68 17.7377L10.7564 17.1925C10.8364 15.8025 12.0929 14.7867 13.4705 14.9859ZM22.0727 18.9394C22.0727 18.675 22.2962 18.4515 22.5606 18.4515H26.2815C26.5459 18.4515 26.7694 18.675 26.7694 18.9394V20.5587C26.7694 21.264 26.1955 21.8379 25.4902 21.8379H23.3517C22.6465 21.8379 22.0726 21.264 22.0726 20.5587V18.9394H22.0727ZM17.6257 18.9394V20.5587C17.6257 21.264 17.052 21.8379 16.3466 21.8379H14.2081C13.5028 21.8379 12.9291 21.264 12.9291 20.5587V18.9394C12.9291 18.675 13.1525 18.4515 13.4169 18.4515H17.1378C17.4022 18.4515 17.6257 18.675 17.6257 18.9394ZM7.34907 19.732C7.34907 18.8858 8.19741 18.2629 9.12598 18.312V21.152C8.18852 21.2016 7.34907 20.5699 7.34907 19.732ZM12.945 27.5442C10.3134 24.4769 10.8207 21.4986 10.7522 19.0786L11.3031 19.4037V20.5588C11.3031 22.1607 12.6063 23.4641 14.2082 23.4641H16.3467C17.9486 23.4641 19.2519 22.1608 19.2519 20.5588V19.7525H20.4467V20.5588C20.4467 22.1607 21.75 23.4641 23.3519 23.4641H25.4904C27.0923 23.4641 28.3957 22.1608 28.3957 20.5588V19.4037L28.9465 19.0786V21.621C28.9465 26.4572 25.1189 30.6591 19.8495 30.7171C19.8385 30.717 19.729 30.7163 19.7399 30.7164C18.3343 30.7022 17.2541 30.3419 17.3634 30.3726C15.7679 29.9299 14.2463 29.0163 12.945 27.5442Z" fill="#00093C"/>
</svg>
