<svg width="50" height="51" viewBox="0 0 50 51" fill="none" xmlns="http://www.w3.org/2000/svg">
<path d="M28.4229 24.1478C28.5694 24.4408 28.8625 24.5996 29.1677 24.5996C29.2898 24.5996 29.4241 24.5751 29.5461 24.5141C29.595 24.4897 34.5029 21.9991 36.9202 21.2299C37.3598 21.0956 37.6039 20.6195 37.4574 20.18C37.3231 19.7405 36.8592 19.4963 36.4075 19.6306C33.8558 20.4364 28.9845 22.9147 28.777 23.0124C28.3863 23.2444 28.2154 23.7449 28.4229 24.1478Z" fill="#00093C"/>
<path d="M29.1662 14.6132C29.2883 14.6132 29.4226 14.5888 29.5447 14.5278C29.5935 14.5033 34.5014 12.0128 36.9188 11.2436C37.3583 11.1093 37.6024 10.6332 37.4559 10.1937C37.3216 9.75414 36.8577 9.50996 36.406 9.64426C33.8544 10.45 28.9831 12.9284 28.7755 13.0261C28.3604 13.2336 28.2017 13.7342 28.4092 14.1493C28.5802 14.4423 28.8732 14.6132 29.1662 14.6132Z" fill="#00093C"/>
<path d="M49.1769 12.9404C48.713 12.9404 48.3467 13.3189 48.3467 13.7706V46.2703C48.3467 47.6499 47.2235 48.7731 45.8439 48.7731H25.8338V46.8564C27.0546 46.4291 30.2167 45.4402 33.3299 45.4402C40.5942 45.4402 45.5143 47.0517 45.5631 47.0639C45.8195 47.1494 46.0881 47.1005 46.3079 46.954C46.5276 46.7953 46.6497 46.5512 46.6497 46.2826V9.60742C46.6497 9.21674 46.3811 8.87489 46.0026 8.78943C46.0026 8.78943 45.3434 8.64293 44.2324 8.43538C43.7806 8.34992 43.3411 8.65514 43.2679 9.10686C43.1824 9.55859 43.4876 9.9981 43.9394 10.0836C44.3667 10.1568 44.7207 10.2301 45.0015 10.2911V45.1716C43.1092 44.671 38.9216 43.7798 33.3299 43.7798C29.7039 43.7798 26.1268 44.9762 25.028 45.3791C24.0513 44.9396 21.0845 43.7798 17.4952 43.7798C11.757 43.7798 7.02004 44.732 4.99338 45.2082V10.2545C6.65378 9.83939 11.5739 8.77722 17.4952 8.77722C20.5351 8.77722 23.1356 9.72951 24.1611 10.1568V42.9496C24.1611 43.2548 24.3199 43.5234 24.5885 43.6699C24.8448 43.8164 25.1745 43.8164 25.4309 43.6577C25.5163 43.6088 33.7694 38.6765 41.0947 36.2347C41.4366 36.1249 41.6685 35.8074 41.6685 35.4412V1.26883C41.6685 1.00024 41.5342 0.743855 41.3145 0.585141C41.0947 0.426427 40.8017 0.3898 40.5453 0.48747C33.8793 2.99027 27.1279 7.19008 27.0668 7.22671C26.6762 7.47089 26.5541 7.98365 26.7982 8.37433C27.0424 8.76502 27.5552 8.8871 27.9459 8.64293C28.0069 8.6063 33.8793 4.95588 40.0081 2.48971V34.8429C34.3188 36.8208 28.3732 40.0439 25.8338 41.4967V9.60742C25.8338 9.28999 25.6506 9.00919 25.3698 8.86269C25.2233 8.78943 21.8049 7.10462 17.4952 7.10462C9.96235 7.10462 4.1754 8.72839 3.93122 8.80164C3.57717 8.89931 3.33299 9.22895 3.33299 9.60742V46.2826C3.33299 46.5389 3.45508 46.7953 3.66263 46.9418C3.80914 47.0517 3.98006 47.1128 4.16319 47.1128C4.23644 47.1128 4.3219 47.1005 4.39516 47.0761C4.4562 47.0639 10.2187 45.4402 17.5074 45.4402C20.5596 45.4402 23.16 46.3924 24.1734 46.8197V48.7731H4.16319C2.7836 48.7731 1.66039 47.6499 1.66039 46.2703V13.7706C1.66039 13.3067 1.28192 12.9404 0.830197 12.9404C0.366263 12.9404 0 13.3189 0 13.7706V46.2703C0 48.5656 1.86794 50.4335 4.16319 50.4335H45.8317C48.127 50.4335 49.9949 48.5656 49.9949 46.2703V13.7706C50.0071 13.3189 49.6286 12.9404 49.1769 12.9404Z" fill="#00093C"/>
<path d="M28.4229 19.1547C28.5694 19.4477 28.8625 19.6064 29.1677 19.6064C29.2898 19.6064 29.4241 19.582 29.5461 19.5209C29.595 19.4965 34.5029 17.0059 36.9202 16.2368C37.3598 16.1025 37.6039 15.6263 37.4574 15.1868C37.3231 14.7473 36.8592 14.5031 36.4075 14.6374C33.8558 15.4432 28.9845 17.9216 28.777 18.0193C28.3863 18.239 28.2154 18.7396 28.4229 19.1547Z" fill="#00093C"/>
<path d="M28.4229 29.1537C28.5694 29.4467 28.8625 29.6054 29.1677 29.6054C29.2898 29.6054 29.4241 29.581 29.5461 29.52C29.595 29.4955 34.5029 27.0049 36.9202 26.2358C37.3598 26.1015 37.6039 25.6254 37.4574 25.1858C37.3231 24.7463 36.8592 24.5021 36.4075 24.6364C33.8558 25.4422 28.9845 27.9206 28.777 28.0183C28.3863 28.238 28.2154 28.7386 28.4229 29.1537Z" fill="#00093C"/>
<path d="M20.1938 15.9072C15.0417 14.6986 9.19369 16.2369 8.94952 16.2979C8.51 16.42 8.24141 16.8717 8.3635 17.3235C8.46117 17.6897 8.80301 17.9461 9.16928 17.9461C9.24253 17.9461 9.31578 17.9339 9.38903 17.9217C9.45008 17.9095 15.0783 16.42 19.8153 17.5432C20.267 17.6531 20.7066 17.3723 20.8164 16.9206C20.9263 16.4566 20.6455 16.0049 20.1938 15.9072Z" fill="#00093C"/>
<path d="M20.1938 20.9001C15.0417 19.6915 9.19369 21.2298 8.94952 21.303C8.51 21.4251 8.24141 21.8768 8.3635 22.3286C8.46117 22.6948 8.80301 22.9512 9.16928 22.9512C9.24253 22.9512 9.31578 22.939 9.38903 22.9268C9.45008 22.9146 15.0783 21.4251 19.8153 22.5483C20.267 22.6582 20.7066 22.3774 20.8164 21.9257C20.9263 21.4617 20.6455 21.01 20.1938 20.9001Z" fill="#00093C"/>
<path d="M28.4229 34.1595C28.5694 34.4526 28.8625 34.6113 29.1677 34.6113C29.2898 34.6113 29.4241 34.5869 29.5461 34.5258C29.595 34.5014 34.5029 32.0108 36.9202 31.2417C37.3598 31.1074 37.6039 30.6312 37.4574 30.1917C37.3231 29.7522 36.8592 29.508 36.4075 29.6423C33.8558 30.4481 28.9845 32.9265 28.777 33.0241C28.3863 33.2439 28.2154 33.7444 28.4229 34.1595Z" fill="#00093C"/>
<path d="M20.1938 25.906C15.0417 24.6973 9.19369 26.2356 8.94952 26.3089C8.51 26.431 8.24141 26.8827 8.3635 27.3344C8.46117 27.7129 8.80301 27.9571 9.16928 27.9571C9.24253 27.9571 9.31578 27.9449 9.38903 27.9326C9.45008 27.9204 15.0783 26.431 19.8153 27.5542C20.267 27.6641 20.7066 27.3833 20.8164 26.9315C20.9263 26.4554 20.6455 26.0159 20.1938 25.906Z" fill="#00093C"/>
<path d="M20.1938 35.9053C15.0417 34.6966 9.19369 36.2349 8.94952 36.296C8.51 36.4181 8.24141 36.8698 8.3635 37.3215C8.46117 37.7 8.80301 37.9441 9.16928 37.9441C9.24253 37.9441 9.31578 37.9319 9.38903 37.9197C9.45008 37.9075 15.0783 36.4181 19.8153 37.5413C20.267 37.6389 20.7066 37.3703 20.8164 36.9186C20.9263 36.4669 20.6455 36.0152 20.1938 35.9053Z" fill="#00093C"/>
<path d="M20.1938 30.9119C15.0417 29.7032 9.19369 31.2415 8.94952 31.3147C8.51 31.4368 8.24141 31.8886 8.3635 32.3403C8.46117 32.7187 8.80301 32.9629 9.16928 32.9629C9.24253 32.9629 9.31578 32.9507 9.38903 32.9385C9.45008 32.9263 15.0783 31.4368 19.8153 32.56C20.267 32.6699 20.7066 32.3891 20.8164 31.9374C20.9263 31.4612 20.6455 31.0095 20.1938 30.9119Z" fill="#00093C"/>
</svg>
